<mxfile host="Electron" modified="2025-04-01T13:45:17.523Z" agent="Mozilla/5.0 (Windows NT 10.0; Win64; x64) AppleWebKit/537.36 (KHTML, like Gecko) draw.io/24.5.1 Chrome/124.0.6367.207 Electron/30.0.6 Safari/537.36" etag="zq9FZ1fnDZxuxdvNptnK" version="24.5.1" type="device">
  <diagram name="Page-1" id="e7e014a7-5840-1c2e-5031-d8a46d1fe8dd">
    <mxGraphModel dx="1120" dy="532" grid="1" gridSize="10" guides="1" tooltips="1" connect="1" arrows="1" fold="1" page="1" pageScale="1" pageWidth="1169" pageHeight="826" background="none" math="0" shadow="0">
      <root>
        <mxCell id="0" />
        <mxCell id="1" parent="0" />
        <mxCell id="iUw_N8i_t2w-qsiJxpAy-20" value="Employees" style="shape=table;startSize=30;container=1;collapsible=1;childLayout=tableLayout;fixedRows=1;rowLines=0;fontStyle=1;align=center;resizeLast=1;shadow=0;textShadow=0;labelBorderColor=none;labelBackgroundColor=none;rounded=1;fillColor=#09555B;strokeColor=#BAC8D3;fontColor=#EEEEEE;" parent="1" vertex="1">
          <mxGeometry x="200" y="430" width="180" height="300" as="geometry" />
        </mxCell>
        <mxCell id="iUw_N8i_t2w-qsiJxpAy-21" value="" style="shape=tableRow;horizontal=0;startSize=0;swimlaneHead=0;swimlaneBody=0;fillColor=none;collapsible=0;dropTarget=0;points=[[0,0.5],[1,0.5]];portConstraint=eastwest;top=0;left=0;right=0;bottom=1;shadow=0;fontStyle=1;textShadow=0;labelBorderColor=none;labelBackgroundColor=none;rounded=1;strokeColor=#BAC8D3;fontColor=#EEEEEE;" parent="iUw_N8i_t2w-qsiJxpAy-20" vertex="1">
          <mxGeometry y="30" width="180" height="30" as="geometry" />
        </mxCell>
        <mxCell id="iUw_N8i_t2w-qsiJxpAy-22" value="PK" style="shape=partialRectangle;connectable=0;fillColor=none;top=0;left=0;bottom=0;right=0;fontStyle=1;overflow=hidden;shadow=0;textShadow=0;labelBorderColor=none;labelBackgroundColor=none;rounded=1;strokeColor=#BAC8D3;fontColor=#EEEEEE;" parent="iUw_N8i_t2w-qsiJxpAy-21" vertex="1">
          <mxGeometry width="30" height="30" as="geometry">
            <mxRectangle width="30" height="30" as="alternateBounds" />
          </mxGeometry>
        </mxCell>
        <mxCell id="iUw_N8i_t2w-qsiJxpAy-23" value="EmployeeID&#x9;&#x9;Serial" style="shape=partialRectangle;connectable=0;fillColor=none;top=0;left=0;bottom=0;right=0;align=left;spacingLeft=6;fontStyle=5;overflow=hidden;shadow=0;textShadow=0;labelBorderColor=none;labelBackgroundColor=none;rounded=1;strokeColor=#BAC8D3;fontColor=#EEEEEE;" parent="iUw_N8i_t2w-qsiJxpAy-21" vertex="1">
          <mxGeometry x="30" width="150" height="30" as="geometry">
            <mxRectangle width="150" height="30" as="alternateBounds" />
          </mxGeometry>
        </mxCell>
        <mxCell id="iUw_N8i_t2w-qsiJxpAy-24" value="" style="shape=tableRow;horizontal=0;startSize=0;swimlaneHead=0;swimlaneBody=0;fillColor=none;collapsible=0;dropTarget=0;points=[[0,0.5],[1,0.5]];portConstraint=eastwest;top=0;left=0;right=0;bottom=0;shadow=0;fontStyle=1;textShadow=0;labelBorderColor=none;labelBackgroundColor=none;rounded=1;strokeColor=#BAC8D3;fontColor=#EEEEEE;" parent="iUw_N8i_t2w-qsiJxpAy-20" vertex="1">
          <mxGeometry y="60" width="180" height="30" as="geometry" />
        </mxCell>
        <mxCell id="iUw_N8i_t2w-qsiJxpAy-25" value="" style="shape=partialRectangle;connectable=0;fillColor=none;top=0;left=0;bottom=0;right=0;editable=1;overflow=hidden;shadow=0;fontStyle=1;textShadow=0;labelBorderColor=none;labelBackgroundColor=none;rounded=1;strokeColor=#BAC8D3;fontColor=#EEEEEE;" parent="iUw_N8i_t2w-qsiJxpAy-24" vertex="1">
          <mxGeometry width="30" height="30" as="geometry">
            <mxRectangle width="30" height="30" as="alternateBounds" />
          </mxGeometry>
        </mxCell>
        <mxCell id="iUw_N8i_t2w-qsiJxpAy-26" value="FullName&#x9;&#x9;VarChar" style="shape=partialRectangle;connectable=0;fillColor=none;top=0;left=0;bottom=0;right=0;align=left;spacingLeft=6;overflow=hidden;shadow=0;fontStyle=1;textShadow=0;labelBorderColor=none;labelBackgroundColor=none;rounded=1;strokeColor=#BAC8D3;fontColor=#EEEEEE;" parent="iUw_N8i_t2w-qsiJxpAy-24" vertex="1">
          <mxGeometry x="30" width="150" height="30" as="geometry">
            <mxRectangle width="150" height="30" as="alternateBounds" />
          </mxGeometry>
        </mxCell>
        <mxCell id="iUw_N8i_t2w-qsiJxpAy-27" value="" style="shape=tableRow;horizontal=0;startSize=0;swimlaneHead=0;swimlaneBody=0;fillColor=none;collapsible=0;dropTarget=0;points=[[0,0.5],[1,0.5]];portConstraint=eastwest;top=0;left=0;right=0;bottom=0;shadow=0;fontStyle=1;textShadow=0;labelBorderColor=none;labelBackgroundColor=none;rounded=1;strokeColor=#BAC8D3;fontColor=#EEEEEE;" parent="iUw_N8i_t2w-qsiJxpAy-20" vertex="1">
          <mxGeometry y="90" width="180" height="30" as="geometry" />
        </mxCell>
        <mxCell id="iUw_N8i_t2w-qsiJxpAy-28" value="" style="shape=partialRectangle;connectable=0;fillColor=none;top=0;left=0;bottom=0;right=0;editable=1;overflow=hidden;shadow=0;fontStyle=1;textShadow=0;labelBorderColor=none;labelBackgroundColor=none;rounded=1;strokeColor=#BAC8D3;fontColor=#EEEEEE;" parent="iUw_N8i_t2w-qsiJxpAy-27" vertex="1">
          <mxGeometry width="30" height="30" as="geometry">
            <mxRectangle width="30" height="30" as="alternateBounds" />
          </mxGeometry>
        </mxCell>
        <mxCell id="iUw_N8i_t2w-qsiJxpAy-29" value="Email&#x9;&#x9;VarChar" style="shape=partialRectangle;connectable=0;fillColor=none;top=0;left=0;bottom=0;right=0;align=left;spacingLeft=6;overflow=hidden;shadow=0;fontStyle=1;textShadow=0;labelBorderColor=none;labelBackgroundColor=none;rounded=1;strokeColor=#BAC8D3;fontColor=#EEEEEE;" parent="iUw_N8i_t2w-qsiJxpAy-27" vertex="1">
          <mxGeometry x="30" width="150" height="30" as="geometry">
            <mxRectangle width="150" height="30" as="alternateBounds" />
          </mxGeometry>
        </mxCell>
        <mxCell id="iUw_N8i_t2w-qsiJxpAy-30" value="" style="shape=tableRow;horizontal=0;startSize=0;swimlaneHead=0;swimlaneBody=0;fillColor=none;collapsible=0;dropTarget=0;points=[[0,0.5],[1,0.5]];portConstraint=eastwest;top=0;left=0;right=0;bottom=0;shadow=0;fontStyle=1;textShadow=0;labelBorderColor=none;labelBackgroundColor=none;rounded=1;strokeColor=#BAC8D3;fontColor=#EEEEEE;" parent="iUw_N8i_t2w-qsiJxpAy-20" vertex="1">
          <mxGeometry y="120" width="180" height="30" as="geometry" />
        </mxCell>
        <mxCell id="iUw_N8i_t2w-qsiJxpAy-31" value="" style="shape=partialRectangle;connectable=0;fillColor=none;top=0;left=0;bottom=0;right=0;editable=1;overflow=hidden;shadow=0;fontStyle=1;textShadow=0;labelBorderColor=none;labelBackgroundColor=none;rounded=1;strokeColor=#BAC8D3;fontColor=#EEEEEE;" parent="iUw_N8i_t2w-qsiJxpAy-30" vertex="1">
          <mxGeometry width="30" height="30" as="geometry">
            <mxRectangle width="30" height="30" as="alternateBounds" />
          </mxGeometry>
        </mxCell>
        <mxCell id="iUw_N8i_t2w-qsiJxpAy-32" value="Phone&#x9;&#x9;VarChar" style="shape=partialRectangle;connectable=0;fillColor=none;top=0;left=0;bottom=0;right=0;align=left;spacingLeft=6;overflow=hidden;shadow=0;fontStyle=1;textShadow=0;labelBorderColor=none;labelBackgroundColor=none;rounded=1;strokeColor=#BAC8D3;fontColor=#EEEEEE;" parent="iUw_N8i_t2w-qsiJxpAy-30" vertex="1">
          <mxGeometry x="30" width="150" height="30" as="geometry">
            <mxRectangle width="150" height="30" as="alternateBounds" />
          </mxGeometry>
        </mxCell>
        <mxCell id="iUw_N8i_t2w-qsiJxpAy-33" value="" style="shape=tableRow;horizontal=0;startSize=0;swimlaneHead=0;swimlaneBody=0;fillColor=none;collapsible=0;dropTarget=0;points=[[0,0.5],[1,0.5]];portConstraint=eastwest;top=0;left=0;right=0;bottom=0;shadow=0;fontStyle=1;textShadow=0;labelBorderColor=none;labelBackgroundColor=none;rounded=1;strokeColor=#BAC8D3;fontColor=#EEEEEE;" parent="iUw_N8i_t2w-qsiJxpAy-20" vertex="1">
          <mxGeometry y="150" width="180" height="30" as="geometry" />
        </mxCell>
        <mxCell id="iUw_N8i_t2w-qsiJxpAy-34" value="" style="shape=partialRectangle;connectable=0;fillColor=none;top=0;left=0;bottom=0;right=0;editable=1;overflow=hidden;shadow=0;fontStyle=1;textShadow=0;labelBorderColor=none;labelBackgroundColor=none;rounded=1;strokeColor=#BAC8D3;fontColor=#EEEEEE;" parent="iUw_N8i_t2w-qsiJxpAy-33" vertex="1">
          <mxGeometry width="30" height="30" as="geometry">
            <mxRectangle width="30" height="30" as="alternateBounds" />
          </mxGeometry>
        </mxCell>
        <mxCell id="iUw_N8i_t2w-qsiJxpAy-35" value="Address&#x9;&#x9;VarChar" style="shape=partialRectangle;connectable=0;fillColor=none;top=0;left=0;bottom=0;right=0;align=left;spacingLeft=6;overflow=hidden;shadow=0;fontStyle=1;textShadow=0;labelBorderColor=none;labelBackgroundColor=none;rounded=1;strokeColor=#BAC8D3;fontColor=#EEEEEE;" parent="iUw_N8i_t2w-qsiJxpAy-33" vertex="1">
          <mxGeometry x="30" width="150" height="30" as="geometry">
            <mxRectangle width="150" height="30" as="alternateBounds" />
          </mxGeometry>
        </mxCell>
        <mxCell id="iUw_N8i_t2w-qsiJxpAy-42" value="" style="shape=tableRow;horizontal=0;startSize=0;swimlaneHead=0;swimlaneBody=0;fillColor=none;collapsible=0;dropTarget=0;points=[[0,0.5],[1,0.5]];portConstraint=eastwest;top=0;left=0;right=0;bottom=0;shadow=0;fontStyle=1;textShadow=0;labelBorderColor=none;labelBackgroundColor=none;rounded=1;strokeColor=#BAC8D3;fontColor=#EEEEEE;" parent="iUw_N8i_t2w-qsiJxpAy-20" vertex="1">
          <mxGeometry y="180" width="180" height="30" as="geometry" />
        </mxCell>
        <mxCell id="iUw_N8i_t2w-qsiJxpAy-43" value="" style="shape=partialRectangle;connectable=0;fillColor=none;top=0;left=0;bottom=0;right=0;editable=1;overflow=hidden;shadow=0;fontStyle=1;textShadow=0;labelBorderColor=none;labelBackgroundColor=none;rounded=1;strokeColor=#BAC8D3;fontColor=#EEEEEE;" parent="iUw_N8i_t2w-qsiJxpAy-42" vertex="1">
          <mxGeometry width="30" height="30" as="geometry">
            <mxRectangle width="30" height="30" as="alternateBounds" />
          </mxGeometry>
        </mxCell>
        <mxCell id="iUw_N8i_t2w-qsiJxpAy-44" value="Salary&#x9;&#x9;Decimal" style="shape=partialRectangle;connectable=0;fillColor=none;top=0;left=0;bottom=0;right=0;align=left;spacingLeft=6;overflow=hidden;shadow=0;fontStyle=1;textShadow=0;labelBorderColor=none;labelBackgroundColor=none;rounded=1;strokeColor=#BAC8D3;fontColor=#EEEEEE;" parent="iUw_N8i_t2w-qsiJxpAy-42" vertex="1">
          <mxGeometry x="30" width="150" height="30" as="geometry">
            <mxRectangle width="150" height="30" as="alternateBounds" />
          </mxGeometry>
        </mxCell>
        <mxCell id="iUw_N8i_t2w-qsiJxpAy-36" value="" style="shape=tableRow;horizontal=0;startSize=0;swimlaneHead=0;swimlaneBody=0;fillColor=none;collapsible=0;dropTarget=0;points=[[0,0.5],[1,0.5]];portConstraint=eastwest;top=0;left=0;right=0;bottom=0;shadow=0;fontStyle=1;textShadow=0;labelBorderColor=none;labelBackgroundColor=none;rounded=1;strokeColor=#BAC8D3;fontColor=#EEEEEE;" parent="iUw_N8i_t2w-qsiJxpAy-20" vertex="1">
          <mxGeometry y="210" width="180" height="30" as="geometry" />
        </mxCell>
        <mxCell id="iUw_N8i_t2w-qsiJxpAy-37" value="" style="shape=partialRectangle;connectable=0;fillColor=none;top=0;left=0;bottom=0;right=0;editable=1;overflow=hidden;shadow=0;fontStyle=1;textShadow=0;labelBorderColor=none;labelBackgroundColor=none;rounded=1;strokeColor=#BAC8D3;fontColor=#EEEEEE;" parent="iUw_N8i_t2w-qsiJxpAy-36" vertex="1">
          <mxGeometry width="30" height="30" as="geometry">
            <mxRectangle width="30" height="30" as="alternateBounds" />
          </mxGeometry>
        </mxCell>
        <mxCell id="iUw_N8i_t2w-qsiJxpAy-38" value="CV&#x9;&#x9;&#x9;Bytea" style="shape=partialRectangle;connectable=0;fillColor=none;top=0;left=0;bottom=0;right=0;align=left;spacingLeft=6;overflow=hidden;shadow=0;fontStyle=1;textShadow=0;labelBorderColor=none;labelBackgroundColor=none;rounded=1;strokeColor=#BAC8D3;fontColor=#EEEEEE;" parent="iUw_N8i_t2w-qsiJxpAy-36" vertex="1">
          <mxGeometry x="30" width="150" height="30" as="geometry">
            <mxRectangle width="150" height="30" as="alternateBounds" />
          </mxGeometry>
        </mxCell>
        <mxCell id="iUw_N8i_t2w-qsiJxpAy-39" value="" style="shape=tableRow;horizontal=0;startSize=0;swimlaneHead=0;swimlaneBody=0;fillColor=none;collapsible=0;dropTarget=0;points=[[0,0.5],[1,0.5]];portConstraint=eastwest;top=0;left=0;right=0;bottom=0;shadow=0;fontStyle=1;textShadow=0;labelBorderColor=none;labelBackgroundColor=none;rounded=1;strokeColor=#BAC8D3;fontColor=#EEEEEE;" parent="iUw_N8i_t2w-qsiJxpAy-20" vertex="1">
          <mxGeometry y="240" width="180" height="30" as="geometry" />
        </mxCell>
        <mxCell id="iUw_N8i_t2w-qsiJxpAy-40" value="" style="shape=partialRectangle;connectable=0;fillColor=none;top=0;left=0;bottom=0;right=0;editable=1;overflow=hidden;shadow=0;fontStyle=1;textShadow=0;labelBorderColor=none;labelBackgroundColor=none;rounded=1;strokeColor=#BAC8D3;fontColor=#EEEEEE;" parent="iUw_N8i_t2w-qsiJxpAy-39" vertex="1">
          <mxGeometry width="30" height="30" as="geometry">
            <mxRectangle width="30" height="30" as="alternateBounds" />
          </mxGeometry>
        </mxCell>
        <mxCell id="iUw_N8i_t2w-qsiJxpAy-41" value="Password&#x9;Varchar" style="shape=partialRectangle;connectable=0;fillColor=none;top=0;left=0;bottom=0;right=0;align=left;spacingLeft=6;overflow=hidden;shadow=0;fontStyle=1;textShadow=0;labelBorderColor=none;labelBackgroundColor=none;rounded=1;strokeColor=#BAC8D3;fontColor=#EEEEEE;" parent="iUw_N8i_t2w-qsiJxpAy-39" vertex="1">
          <mxGeometry x="30" width="150" height="30" as="geometry">
            <mxRectangle width="150" height="30" as="alternateBounds" />
          </mxGeometry>
        </mxCell>
        <mxCell id="AeaZEz6VL6M5sB0qiRHP-1" value="" style="shape=tableRow;horizontal=0;startSize=0;swimlaneHead=0;swimlaneBody=0;fillColor=none;collapsible=0;dropTarget=0;points=[[0,0.5],[1,0.5]];portConstraint=eastwest;top=0;left=0;right=0;bottom=0;shadow=0;fontStyle=1;textShadow=0;labelBorderColor=none;labelBackgroundColor=none;rounded=1;strokeColor=#BAC8D3;fontColor=#EEEEEE;" vertex="1" parent="iUw_N8i_t2w-qsiJxpAy-20">
          <mxGeometry y="270" width="180" height="30" as="geometry" />
        </mxCell>
        <mxCell id="AeaZEz6VL6M5sB0qiRHP-2" value="" style="shape=partialRectangle;connectable=0;fillColor=none;top=0;left=0;bottom=0;right=0;editable=1;overflow=hidden;shadow=0;fontStyle=1;textShadow=0;labelBorderColor=none;labelBackgroundColor=none;rounded=1;strokeColor=#BAC8D3;fontColor=#EEEEEE;" vertex="1" parent="AeaZEz6VL6M5sB0qiRHP-1">
          <mxGeometry width="30" height="30" as="geometry">
            <mxRectangle width="30" height="30" as="alternateBounds" />
          </mxGeometry>
        </mxCell>
        <mxCell id="AeaZEz6VL6M5sB0qiRHP-3" value="FingerPrint Bytea" style="shape=partialRectangle;connectable=0;fillColor=none;top=0;left=0;bottom=0;right=0;align=left;spacingLeft=6;overflow=hidden;shadow=0;fontStyle=1;textShadow=0;labelBorderColor=none;labelBackgroundColor=none;rounded=1;strokeColor=#BAC8D3;fontColor=#EEEEEE;" vertex="1" parent="AeaZEz6VL6M5sB0qiRHP-1">
          <mxGeometry x="30" width="150" height="30" as="geometry">
            <mxRectangle width="150" height="30" as="alternateBounds" />
          </mxGeometry>
        </mxCell>
        <mxCell id="iUw_N8i_t2w-qsiJxpAy-45" value="Attendance" style="shape=table;startSize=30;container=1;collapsible=1;childLayout=tableLayout;fixedRows=1;rowLines=0;fontStyle=1;align=center;resizeLast=1;shadow=0;textShadow=0;labelBorderColor=none;labelBackgroundColor=none;rounded=1;fillColor=#09555B;strokeColor=#BAC8D3;fontColor=#EEEEEE;" parent="1" vertex="1">
          <mxGeometry x="530" y="440" width="180" height="120" as="geometry" />
        </mxCell>
        <mxCell id="iUw_N8i_t2w-qsiJxpAy-46" value="" style="shape=tableRow;horizontal=0;startSize=0;swimlaneHead=0;swimlaneBody=0;fillColor=none;collapsible=0;dropTarget=0;points=[[0,0.5],[1,0.5]];portConstraint=eastwest;top=0;left=0;right=0;bottom=1;shadow=0;fontStyle=1;textShadow=0;labelBorderColor=none;labelBackgroundColor=none;rounded=1;strokeColor=#BAC8D3;fontColor=#EEEEEE;" parent="iUw_N8i_t2w-qsiJxpAy-45" vertex="1">
          <mxGeometry y="30" width="180" height="30" as="geometry" />
        </mxCell>
        <mxCell id="iUw_N8i_t2w-qsiJxpAy-47" value="PK" style="shape=partialRectangle;connectable=0;fillColor=none;top=0;left=0;bottom=0;right=0;fontStyle=1;overflow=hidden;shadow=0;textShadow=0;labelBorderColor=none;labelBackgroundColor=none;rounded=1;strokeColor=#BAC8D3;fontColor=#EEEEEE;" parent="iUw_N8i_t2w-qsiJxpAy-46" vertex="1">
          <mxGeometry width="30" height="30" as="geometry">
            <mxRectangle width="30" height="30" as="alternateBounds" />
          </mxGeometry>
        </mxCell>
        <mxCell id="iUw_N8i_t2w-qsiJxpAy-48" value="AttendanceID&#x9;&#x9;Serial" style="shape=partialRectangle;connectable=0;fillColor=none;top=0;left=0;bottom=0;right=0;align=left;spacingLeft=6;fontStyle=5;overflow=hidden;shadow=0;textShadow=0;labelBorderColor=none;labelBackgroundColor=none;rounded=1;strokeColor=#BAC8D3;fontColor=#EEEEEE;" parent="iUw_N8i_t2w-qsiJxpAy-46" vertex="1">
          <mxGeometry x="30" width="150" height="30" as="geometry">
            <mxRectangle width="150" height="30" as="alternateBounds" />
          </mxGeometry>
        </mxCell>
        <mxCell id="iUw_N8i_t2w-qsiJxpAy-49" value="" style="shape=tableRow;horizontal=0;startSize=0;swimlaneHead=0;swimlaneBody=0;fillColor=none;collapsible=0;dropTarget=0;points=[[0,0.5],[1,0.5]];portConstraint=eastwest;top=0;left=0;right=0;bottom=0;shadow=0;fontStyle=1;textShadow=0;labelBorderColor=none;labelBackgroundColor=none;rounded=1;strokeColor=#BAC8D3;fontColor=#EEEEEE;" parent="iUw_N8i_t2w-qsiJxpAy-45" vertex="1">
          <mxGeometry y="60" width="180" height="30" as="geometry" />
        </mxCell>
        <mxCell id="iUw_N8i_t2w-qsiJxpAy-50" value="FK" style="shape=partialRectangle;connectable=0;fillColor=none;top=0;left=0;bottom=0;right=0;editable=1;overflow=hidden;shadow=0;fontStyle=1;textShadow=0;labelBorderColor=none;labelBackgroundColor=none;rounded=1;strokeColor=#BAC8D3;fontColor=#EEEEEE;" parent="iUw_N8i_t2w-qsiJxpAy-49" vertex="1">
          <mxGeometry width="30" height="30" as="geometry">
            <mxRectangle width="30" height="30" as="alternateBounds" />
          </mxGeometry>
        </mxCell>
        <mxCell id="iUw_N8i_t2w-qsiJxpAy-51" value="EmployeeID          Integer" style="shape=partialRectangle;connectable=0;fillColor=none;top=0;left=0;bottom=0;right=0;align=left;spacingLeft=6;overflow=hidden;shadow=0;fontStyle=1;textShadow=0;labelBorderColor=none;labelBackgroundColor=none;rounded=1;strokeColor=#BAC8D3;fontColor=#EEEEEE;" parent="iUw_N8i_t2w-qsiJxpAy-49" vertex="1">
          <mxGeometry x="30" width="150" height="30" as="geometry">
            <mxRectangle width="150" height="30" as="alternateBounds" />
          </mxGeometry>
        </mxCell>
        <mxCell id="iUw_N8i_t2w-qsiJxpAy-52" value="" style="shape=tableRow;horizontal=0;startSize=0;swimlaneHead=0;swimlaneBody=0;fillColor=none;collapsible=0;dropTarget=0;points=[[0,0.5],[1,0.5]];portConstraint=eastwest;top=0;left=0;right=0;bottom=0;shadow=0;fontStyle=1;textShadow=0;labelBorderColor=none;labelBackgroundColor=none;rounded=1;strokeColor=#BAC8D3;fontColor=#EEEEEE;" parent="iUw_N8i_t2w-qsiJxpAy-45" vertex="1">
          <mxGeometry y="90" width="180" height="30" as="geometry" />
        </mxCell>
        <mxCell id="iUw_N8i_t2w-qsiJxpAy-53" value="" style="shape=partialRectangle;connectable=0;fillColor=none;top=0;left=0;bottom=0;right=0;editable=1;overflow=hidden;shadow=0;fontStyle=1;textShadow=0;labelBorderColor=none;labelBackgroundColor=none;rounded=1;strokeColor=#BAC8D3;fontColor=#EEEEEE;" parent="iUw_N8i_t2w-qsiJxpAy-52" vertex="1">
          <mxGeometry width="30" height="30" as="geometry">
            <mxRectangle width="30" height="30" as="alternateBounds" />
          </mxGeometry>
        </mxCell>
        <mxCell id="iUw_N8i_t2w-qsiJxpAy-54" value="AttendDate    Timestamp " style="shape=partialRectangle;connectable=0;fillColor=none;top=0;left=0;bottom=0;right=0;align=left;spacingLeft=6;overflow=hidden;shadow=0;fontStyle=1;textShadow=0;labelBorderColor=none;labelBackgroundColor=none;rounded=1;strokeColor=#BAC8D3;fontColor=#EEEEEE;" parent="iUw_N8i_t2w-qsiJxpAy-52" vertex="1">
          <mxGeometry x="30" width="150" height="30" as="geometry">
            <mxRectangle width="150" height="30" as="alternateBounds" />
          </mxGeometry>
        </mxCell>
        <mxCell id="iUw_N8i_t2w-qsiJxpAy-60" value="" style="edgeStyle=orthogonalEdgeStyle;rounded=1;orthogonalLoop=1;jettySize=auto;exitX=0;exitY=0.5;exitDx=0;exitDy=0;entryX=1;entryY=0.5;entryDx=0;entryDy=0;shadow=0;fontStyle=1;textShadow=0;labelBorderColor=none;labelBackgroundColor=none;strokeColor=#0B4D6A;fontColor=default;" parent="1" source="iUw_N8i_t2w-qsiJxpAy-49" target="iUw_N8i_t2w-qsiJxpAy-21" edge="1">
          <mxGeometry relative="1" as="geometry" />
        </mxCell>
        <mxCell id="iUw_N8i_t2w-qsiJxpAy-78" value="Salary" style="shape=table;startSize=30;container=1;collapsible=1;childLayout=tableLayout;fixedRows=1;rowLines=0;fontStyle=1;align=center;resizeLast=1;shadow=0;textShadow=0;labelBorderColor=none;labelBackgroundColor=none;rounded=1;fillColor=#09555B;strokeColor=#BAC8D3;fontColor=#EEEEEE;" parent="1" vertex="1">
          <mxGeometry x="550" y="590" width="220" height="210" as="geometry" />
        </mxCell>
        <mxCell id="iUw_N8i_t2w-qsiJxpAy-79" value="" style="shape=tableRow;horizontal=0;startSize=0;swimlaneHead=0;swimlaneBody=0;fillColor=none;collapsible=0;dropTarget=0;points=[[0,0.5],[1,0.5]];portConstraint=eastwest;top=0;left=0;right=0;bottom=1;shadow=0;fontStyle=1;textShadow=0;labelBorderColor=none;labelBackgroundColor=none;rounded=1;strokeColor=#BAC8D3;fontColor=#EEEEEE;" parent="iUw_N8i_t2w-qsiJxpAy-78" vertex="1">
          <mxGeometry y="30" width="220" height="30" as="geometry" />
        </mxCell>
        <mxCell id="iUw_N8i_t2w-qsiJxpAy-80" value="PK" style="shape=partialRectangle;connectable=0;fillColor=none;top=0;left=0;bottom=0;right=0;fontStyle=1;overflow=hidden;shadow=0;textShadow=0;labelBorderColor=none;labelBackgroundColor=none;rounded=1;strokeColor=#BAC8D3;fontColor=#EEEEEE;" parent="iUw_N8i_t2w-qsiJxpAy-79" vertex="1">
          <mxGeometry width="30" height="30" as="geometry">
            <mxRectangle width="30" height="30" as="alternateBounds" />
          </mxGeometry>
        </mxCell>
        <mxCell id="iUw_N8i_t2w-qsiJxpAy-81" value="SalaryID&#x9;&#x9;&#x9;    Serial" style="shape=partialRectangle;connectable=0;fillColor=none;top=0;left=0;bottom=0;right=0;align=left;spacingLeft=6;fontStyle=5;overflow=hidden;shadow=0;textShadow=0;labelBorderColor=none;labelBackgroundColor=none;rounded=1;strokeColor=#BAC8D3;fontColor=#EEEEEE;" parent="iUw_N8i_t2w-qsiJxpAy-79" vertex="1">
          <mxGeometry x="30" width="190" height="30" as="geometry">
            <mxRectangle width="190" height="30" as="alternateBounds" />
          </mxGeometry>
        </mxCell>
        <mxCell id="iUw_N8i_t2w-qsiJxpAy-82" value="" style="shape=tableRow;horizontal=0;startSize=0;swimlaneHead=0;swimlaneBody=0;fillColor=none;collapsible=0;dropTarget=0;points=[[0,0.5],[1,0.5]];portConstraint=eastwest;top=0;left=0;right=0;bottom=0;shadow=0;fontStyle=1;textShadow=0;labelBorderColor=none;labelBackgroundColor=none;rounded=1;strokeColor=#BAC8D3;fontColor=#EEEEEE;" parent="iUw_N8i_t2w-qsiJxpAy-78" vertex="1">
          <mxGeometry y="60" width="220" height="30" as="geometry" />
        </mxCell>
        <mxCell id="iUw_N8i_t2w-qsiJxpAy-83" value="FK" style="shape=partialRectangle;connectable=0;fillColor=none;top=0;left=0;bottom=0;right=0;editable=1;overflow=hidden;shadow=0;fontStyle=1;textShadow=0;labelBorderColor=none;labelBackgroundColor=none;rounded=1;strokeColor=#BAC8D3;fontColor=#EEEEEE;" parent="iUw_N8i_t2w-qsiJxpAy-82" vertex="1">
          <mxGeometry width="30" height="30" as="geometry">
            <mxRectangle width="30" height="30" as="alternateBounds" />
          </mxGeometry>
        </mxCell>
        <mxCell id="iUw_N8i_t2w-qsiJxpAy-84" value="EmployeeID&#x9;            Integer" style="shape=partialRectangle;connectable=0;fillColor=none;top=0;left=0;bottom=0;right=0;align=left;spacingLeft=6;overflow=hidden;shadow=0;fontStyle=1;textShadow=0;labelBorderColor=none;labelBackgroundColor=none;rounded=1;strokeColor=#BAC8D3;fontColor=#EEEEEE;" parent="iUw_N8i_t2w-qsiJxpAy-82" vertex="1">
          <mxGeometry x="30" width="190" height="30" as="geometry">
            <mxRectangle width="190" height="30" as="alternateBounds" />
          </mxGeometry>
        </mxCell>
        <mxCell id="iUw_N8i_t2w-qsiJxpAy-85" value="" style="shape=tableRow;horizontal=0;startSize=0;swimlaneHead=0;swimlaneBody=0;fillColor=none;collapsible=0;dropTarget=0;points=[[0,0.5],[1,0.5]];portConstraint=eastwest;top=0;left=0;right=0;bottom=0;shadow=0;fontStyle=1;textShadow=0;labelBorderColor=none;labelBackgroundColor=none;rounded=1;strokeColor=#BAC8D3;fontColor=#EEEEEE;" parent="iUw_N8i_t2w-qsiJxpAy-78" vertex="1">
          <mxGeometry y="90" width="220" height="30" as="geometry" />
        </mxCell>
        <mxCell id="iUw_N8i_t2w-qsiJxpAy-86" value="" style="shape=partialRectangle;connectable=0;fillColor=none;top=0;left=0;bottom=0;right=0;editable=1;overflow=hidden;shadow=0;fontStyle=1;textShadow=0;labelBorderColor=none;labelBackgroundColor=none;rounded=1;strokeColor=#BAC8D3;fontColor=#EEEEEE;" parent="iUw_N8i_t2w-qsiJxpAy-85" vertex="1">
          <mxGeometry width="30" height="30" as="geometry">
            <mxRectangle width="30" height="30" as="alternateBounds" />
          </mxGeometry>
        </mxCell>
        <mxCell id="iUw_N8i_t2w-qsiJxpAy-87" value="ActualSalary               Decimal" style="shape=partialRectangle;connectable=0;fillColor=none;top=0;left=0;bottom=0;right=0;align=left;spacingLeft=6;overflow=hidden;shadow=0;fontStyle=1;textShadow=0;labelBorderColor=none;labelBackgroundColor=none;rounded=1;strokeColor=#BAC8D3;fontColor=#EEEEEE;" parent="iUw_N8i_t2w-qsiJxpAy-85" vertex="1">
          <mxGeometry x="30" width="190" height="30" as="geometry">
            <mxRectangle width="190" height="30" as="alternateBounds" />
          </mxGeometry>
        </mxCell>
        <mxCell id="iUw_N8i_t2w-qsiJxpAy-88" value="" style="shape=tableRow;horizontal=0;startSize=0;swimlaneHead=0;swimlaneBody=0;fillColor=none;collapsible=0;dropTarget=0;points=[[0,0.5],[1,0.5]];portConstraint=eastwest;top=0;left=0;right=0;bottom=0;shadow=0;fontStyle=1;textShadow=0;labelBorderColor=none;labelBackgroundColor=none;rounded=1;strokeColor=#BAC8D3;fontColor=#EEEEEE;" parent="iUw_N8i_t2w-qsiJxpAy-78" vertex="1">
          <mxGeometry y="120" width="220" height="30" as="geometry" />
        </mxCell>
        <mxCell id="iUw_N8i_t2w-qsiJxpAy-89" value="" style="shape=partialRectangle;connectable=0;fillColor=none;top=0;left=0;bottom=0;right=0;editable=1;overflow=hidden;shadow=0;fontStyle=1;textShadow=0;labelBorderColor=none;labelBackgroundColor=none;rounded=1;strokeColor=#BAC8D3;fontColor=#EEEEEE;" parent="iUw_N8i_t2w-qsiJxpAy-88" vertex="1">
          <mxGeometry width="30" height="30" as="geometry">
            <mxRectangle width="30" height="30" as="alternateBounds" />
          </mxGeometry>
        </mxCell>
        <mxCell id="iUw_N8i_t2w-qsiJxpAy-90" value="DifferenceAmount       Decimal" style="shape=partialRectangle;connectable=0;fillColor=none;top=0;left=0;bottom=0;right=0;align=left;spacingLeft=6;overflow=hidden;shadow=0;fontStyle=1;textShadow=0;labelBorderColor=none;labelBackgroundColor=none;rounded=1;strokeColor=#BAC8D3;fontColor=#EEEEEE;" parent="iUw_N8i_t2w-qsiJxpAy-88" vertex="1">
          <mxGeometry x="30" width="190" height="30" as="geometry">
            <mxRectangle width="190" height="30" as="alternateBounds" />
          </mxGeometry>
        </mxCell>
        <mxCell id="iUw_N8i_t2w-qsiJxpAy-98" value="" style="shape=tableRow;horizontal=0;startSize=0;swimlaneHead=0;swimlaneBody=0;fillColor=none;collapsible=0;dropTarget=0;points=[[0,0.5],[1,0.5]];portConstraint=eastwest;top=0;left=0;right=0;bottom=0;shadow=0;fontStyle=1;textShadow=0;labelBorderColor=none;labelBackgroundColor=none;rounded=1;strokeColor=#BAC8D3;fontColor=#EEEEEE;" parent="iUw_N8i_t2w-qsiJxpAy-78" vertex="1">
          <mxGeometry y="150" width="220" height="30" as="geometry" />
        </mxCell>
        <mxCell id="iUw_N8i_t2w-qsiJxpAy-99" value="" style="shape=partialRectangle;connectable=0;fillColor=none;top=0;left=0;bottom=0;right=0;editable=1;overflow=hidden;shadow=0;fontStyle=1;textShadow=0;labelBorderColor=none;labelBackgroundColor=none;rounded=1;strokeColor=#BAC8D3;fontColor=#EEEEEE;" parent="iUw_N8i_t2w-qsiJxpAy-98" vertex="1">
          <mxGeometry width="30" height="30" as="geometry">
            <mxRectangle width="30" height="30" as="alternateBounds" />
          </mxGeometry>
        </mxCell>
        <mxCell id="iUw_N8i_t2w-qsiJxpAy-100" value="DeductionOrRaise    VarChar" style="shape=partialRectangle;connectable=0;fillColor=none;top=0;left=0;bottom=0;right=0;align=left;spacingLeft=6;overflow=hidden;shadow=0;fontStyle=1;textShadow=0;labelBorderColor=none;labelBackgroundColor=none;rounded=1;strokeColor=#BAC8D3;fontColor=#EEEEEE;" parent="iUw_N8i_t2w-qsiJxpAy-98" vertex="1">
          <mxGeometry x="30" width="190" height="30" as="geometry">
            <mxRectangle width="190" height="30" as="alternateBounds" />
          </mxGeometry>
        </mxCell>
        <mxCell id="iUw_N8i_t2w-qsiJxpAy-95" value="" style="shape=tableRow;horizontal=0;startSize=0;swimlaneHead=0;swimlaneBody=0;fillColor=none;collapsible=0;dropTarget=0;points=[[0,0.5],[1,0.5]];portConstraint=eastwest;top=0;left=0;right=0;bottom=0;shadow=0;fontStyle=1;textShadow=0;labelBorderColor=none;labelBackgroundColor=none;rounded=1;strokeColor=#BAC8D3;fontColor=#EEEEEE;" parent="iUw_N8i_t2w-qsiJxpAy-78" vertex="1">
          <mxGeometry y="180" width="220" height="30" as="geometry" />
        </mxCell>
        <mxCell id="iUw_N8i_t2w-qsiJxpAy-96" value="" style="shape=partialRectangle;connectable=0;fillColor=none;top=0;left=0;bottom=0;right=0;editable=1;overflow=hidden;shadow=0;fontStyle=1;textShadow=0;labelBorderColor=none;labelBackgroundColor=none;rounded=1;strokeColor=#BAC8D3;fontColor=#EEEEEE;" parent="iUw_N8i_t2w-qsiJxpAy-95" vertex="1">
          <mxGeometry width="30" height="30" as="geometry">
            <mxRectangle width="30" height="30" as="alternateBounds" />
          </mxGeometry>
        </mxCell>
        <mxCell id="iUw_N8i_t2w-qsiJxpAy-97" value="Reason&#x9;&#x9;&#x9;    VarChar" style="shape=partialRectangle;connectable=0;fillColor=none;top=0;left=0;bottom=0;right=0;align=left;spacingLeft=6;overflow=hidden;shadow=0;fontStyle=1;textShadow=0;labelBorderColor=none;labelBackgroundColor=none;rounded=1;strokeColor=#BAC8D3;fontColor=#EEEEEE;" parent="iUw_N8i_t2w-qsiJxpAy-95" vertex="1">
          <mxGeometry x="30" width="190" height="30" as="geometry">
            <mxRectangle width="190" height="30" as="alternateBounds" />
          </mxGeometry>
        </mxCell>
        <mxCell id="iUw_N8i_t2w-qsiJxpAy-94" value="" style="edgeStyle=orthogonalEdgeStyle;rounded=1;orthogonalLoop=1;jettySize=auto;exitX=0;exitY=0.5;exitDx=0;exitDy=0;entryX=1;entryY=0.5;entryDx=0;entryDy=0;shadow=0;fontStyle=1;textShadow=0;labelBorderColor=none;labelBackgroundColor=none;strokeColor=#0B4D6A;fontColor=default;" parent="1" source="iUw_N8i_t2w-qsiJxpAy-82" target="iUw_N8i_t2w-qsiJxpAy-21" edge="1">
          <mxGeometry relative="1" as="geometry" />
        </mxCell>
      </root>
    </mxGraphModel>
  </diagram>
</mxfile>
